<svg width="70" height="70" viewBox="0 0 70 70" fill="none" xmlns="http://www.w3.org/2000/svg">
<path d="M64.7263 4.70066C66.2705 6.34723 67.0426 8.50836 66.8882 10.7724C66.7853 15.3519 67.2485 19.9315 68.278 24.3566C70.8003 35.7283 67.0426 48.7979 57.4169 58.4201C48.2545 67.5277 36.055 71.3354 25.1425 69.5859C19.9436 68.6597 14.6417 68.5054 9.39131 69.0714C6.66316 69.3801 4.14092 68.7626 2.39079 67.0132C0.640659 65.2637 -0.028508 62.7424 0.331813 60.0152C1.00098 54.8182 1.00098 49.5183 0.331813 44.3213C-1.21242 33.5157 2.64816 21.578 11.6047 12.5733C21.076 3.10554 33.8931 -0.650704 45.166 1.66479C49.5928 2.53953 54.0711 2.84826 58.6008 2.59099C60.9687 2.48808 63.1821 3.157 64.7263 4.70066Z" fill="#FFE000"/>
<path d="M59.6818 23.6877C60.7628 26.1061 61.3805 28.7303 61.5349 31.406C61.6893 34.1331 61.432 36.8603 60.8143 39.4845C59.4759 44.8359 56.7478 49.7756 52.9387 53.7376C49.1296 57.7512 44.3425 60.6841 39.0921 62.2278C33.8932 63.7714 28.1795 63.8229 23.2894 61.9705C28.2824 61.7132 33.1725 60.5298 37.7023 58.4715C42.0261 56.4648 45.9382 53.6347 49.2325 50.1872C52.5784 46.7397 55.2036 42.7262 57.0052 38.301C58.8068 33.6186 59.7333 28.6789 59.6818 23.6877Z" fill="#FFBE00"/>
</svg>
