<?xml version="1.0" encoding="UTF-8" standalone="no"?>
<svg
   xml:space="preserve"
   viewBox="0 0 670.23608 134.0967"
   version="1.1"
   id="svg2"
   sodipodi:docname="logo.svg"
   inkscape:version="1.4 (e7c3feb1, 2024-10-09)"
   width="670.23608"
   height="134.09671"
   xmlns:inkscape="http://www.inkscape.org/namespaces/inkscape"
   xmlns:sodipodi="http://sodipodi.sourceforge.net/DTD/sodipodi-0.dtd"
   xmlns="http://www.w3.org/2000/svg"
   xmlns:svg="http://www.w3.org/2000/svg"><defs
     id="defs2" /><sodipodi:namedview
     id="namedview2"
     pagecolor="#ffffff"
     bordercolor="#000000"
     borderopacity="0.25"
     inkscape:showpageshadow="2"
     inkscape:pageopacity="0.0"
     inkscape:pagecheckerboard="0"
     inkscape:deskcolor="#d1d1d1"
     inkscape:zoom="1.1563732"
     inkscape:cx="456.16761"
     inkscape:cy="66.5875"
     inkscape:window-width="1920"
     inkscape:window-height="1027"
     inkscape:window-x="1920"
     inkscape:window-y="25"
     inkscape:window-maximized="0"
     inkscape:current-layer="svg2" /><path
     d="m 125.74462,7.1919708 c 3,3.2000002 4.5,7.4000002 4.2,11.8000002 -0.2,8.9 0.7,17.8 2.7,26.4 4.9,22.1 -2.4,47.5 -21.1,66.199999 -17.800003,17.7 -41.500003,25.1 -62.700003,21.7 -10.1,-1.8 -20.4,-2.1 -30.6,-1 -5.3,0.6 -10.1999998,-0.6 -13.5999998,-4 -3.4,-3.4 -4.69999999,-8.3 -3.99999999,-13.6 1.29999999,-10.1 1.29999999,-20.399999 0,-30.499999 -3.00000001,-21 4.49999999,-44.2 21.89999979,-61.7 18.4,-18.4000002 43.3,-25.7000002 65.2,-21.2000002 8.6,1.7 17.300003,2.3 26.100003,1.8 4.6,-0.2 8.9,1.1 11.9,4.1 z"
     style="fill:#ffe000"
     id="path1" /><path
     d="m 115.94462,44.091971 c 2.1,4.7 3.3,9.8 3.6,15 0.3,5.3 -0.2,10.6 -1.4,15.7 -2.6,10.4 -7.9,20 -15.3,27.699999 -7.400003,7.8 -16.700003,13.5 -26.900003,16.5 -10.1,3 -21.2,3.1 -30.7,-0.5 9.7,-0.5 19.2,-2.8 28,-6.8 8.4,-3.9 16,-9.4 22.4,-16.099999 6.500003,-6.7 11.600003,-14.5 15.100003,-23.1 3.5,-9.1 5.3,-18.7 5.2,-28.4 z"
     style="fill:#ffbe00"
     id="path2" /><path
     d="m 176.01959,117.78086 q 0,-10.72348 0.13239,-21.049794 0.13239,-10.326316 -0.13239,-20.520243 -0.26477,-10.193928 -1.05911,-20.387855 -0.79433,-10.326316 -2.38299,-20.917409 0,-0.264778 -0.39717,-1.05911 -0.26477,-0.794332 -0.52955,-1.588664 -0.26478,-0.92672 -0.52956,-1.588664 -0.26477,-0.661943 -0.26477,-0.92672 0,-0.661944 0.39716,-1.588664 0.52956,-0.926721 1.1915,-1.721053 0.79433,-0.926721 1.72105,-1.456275 0.92672,-0.529555 1.85344,-0.397166 1.58867,0.397166 2.51539,1.98583 1.05911,1.588664 1.58866,3.574494 0.52956,1.853441 0.66195,3.706882 0.26477,1.853442 0.26477,2.647774 3.97166,-2.118219 8.87004,-4.501215 5.03077,-2.515385 10.19393,-4.501215 5.29555,-2.118218 10.45871,-3.442105 5.29554,-1.456275 9.92915,-1.456275 0,1.191498 -0.52956,2.118218 -0.39716,0.926721 -1.72105,1.588664 l -37.20122,18.666802 v 5.163158 q 0.13239,1.456276 0.26478,5.03077 0.26478,3.574494 0.52956,7.678542 0.26477,3.97166 0.39716,7.678543 0.26478,3.574494 0.39717,4.898381 l 27.27206,-15.224697 0.66195,-0.794332 q 0.66194,-0.794332 1.72105,-1.456275 1.05911,-0.661944 2.11822,-0.661944 1.1915,-0.132388 2.2506,1.323887 0,2.382996 -2.38299,4.633603 -2.383,2.250608 -5.95749,4.501215 -3.5745,2.250607 -7.81093,4.368826 -4.10405,2.118219 -7.67855,4.104049 -3.57449,1.98583 -5.95749,3.97166 -2.38299,1.98583 -2.38299,3.706882 v 25.551015 q 1.72105,0.66194 4.76599,-0.52956 3.17733,-1.32388 7.0166,-3.57449 3.83927,-2.25061 7.94332,-5.16316 4.10405,-3.044938 7.94332,-5.692712 3.97166,-2.647773 7.28138,-4.765992 3.4421,-2.118218 5.69271,-2.515384 1.32389,0 2.383,0.529554 1.0591,0.529555 1.0591,2.118219 0,1.588664 -1.85344,2.515385 -4.6336,2.780162 -10.72348,7.016599 -5.95749,4.104051 -12.17976,8.340491 -6.22226,4.10404 -12.31214,7.54615 -5.95749,3.30972 -10.32632,4.36883 -1.72105,0 -2.78016,-0.26478 -1.05911,-0.26478 -2.383,-1.58867 z m 61.03118,-3.30971 q 0.92672,-6.08988 1.19149,-15.2247 0.39717,-9.134818 0.26478,-19.461133 0,-10.326316 -0.39716,-21.314576 -0.39717,-10.988259 -1.05911,-20.78502 -0.66195,-9.92915 -1.58867,-17.740082 -0.79433,-7.810931 -1.72105,-12.3121456 1.1915,-0.794332 1.98583,-1.191498 0.92672,-0.5295547 2.11822,-0.5295547 0.92672,0 1.58866,0.397166 0.66195,0.2647774 1.05911,1.3238867 2.64777,25.9481786 3.5745,52.2935236 1.0591,26.345344 1.58866,52.425913 0,1.1915 0,3.30972 0,1.98583 -0.13239,2.11821 -1.85344,0.92672 -3.30972,0.92672 -1.45627,-0.13238 -2.64777,-0.79433 -1.1915,-0.79433 -1.85344,-1.72105 -0.66194,-0.92672 -0.66194,-1.72105 z m 18.00485,4.10405 q 0,-8.60527 -0.39716,-18.13725 -0.26478,-9.531986 -0.66195,-19.196358 -0.26477,-9.796761 -0.13238,-19.196357 0.13238,-9.399595 1.19149,-17.607692 0.26478,-0.132389 1.1915,-0.132389 1.05911,-0.132389 1.45628,-0.132389 1.85344,0 2.91255,0.661944 1.1915,0.529554 1.1915,2.515384 0,7.810932 -0.13239,17.078138 0,9.134818 -0.13239,18.666802 0,9.399595 0,18.666807 0,9.2672 0.26478,16.81336 0.13238,2.2506 -0.92672,2.91255 -0.92673,0.79433 -2.383,0.79433 -1.58866,0 -2.64777,-0.79433 -1.05911,-0.66195 -0.79434,-2.91255 z m -2.91255,-94.790289 q 0,-1.588664 1.05911,-2.118219 1.05911,-0.529555 2.383,-0.529555 2.64777,0 3.30972,1.721053 0.66194,1.721053 0.66194,3.97166 -0.79433,1.456275 -1.98583,2.118219 -1.1915,0.529554 -2.51539,0.264777 -1.19149,-0.397166 -2.11821,-1.721053 -0.79434,-1.323886 -0.79434,-3.706882 z m 60.8753,92.274899 q -0.26478,-16.81336 -0.66194,-28.72834 -0.26478,-12.047368 -0.52956,-20.255465 -0.26477,-8.208098 -0.66194,-12.97409 -0.26478,-4.89838 -0.39717,-7.810931 -0.13239,-2.912551 -0.26477,-4.104049 -0.13239,-1.323886 -0.13239,-2.515384 0,-2.250608 1.32388,-2.780162 1.32389,-0.661944 3.30972,-0.661944 2.25061,0 3.44211,0.926721 1.32388,0.794332 1.32388,4.368826 l 2.51539,71.225098 q 0.13239,0 1.32388,-0.26477 1.1915,-0.26478 2.78017,-0.79433 1.58866,-0.52956 3.30971,-1.05911 1.72106,-0.66195 2.78016,-1.1915 1.58867,-0.66195 4.766,-2.11822 3.17732,-1.45628 7.14898,-3.30972 3.97166,-1.85344 8.34049,-3.83927 4.50122,-2.118218 8.47288,-3.83927 4.10404,-1.853442 7.14898,-3.309717 3.17733,-1.588664 4.766,-2.250607 h 1.58866 q 0.79433,0 1.58866,0.132388 0.79434,0.132389 1.32389,0.661944 0.52955,0.529554 0.66194,1.588664 0,1.323886 -0.52955,2.250607 -0.39717,0.926721 -1.1915,2.118219 -7.81093,1.456275 -15.35708,5.295542 -7.41377,3.83928 -14.82754,7.94332 -7.28137,4.10405 -14.82753,7.28138 -7.41376,3.17733 -15.22469,3.17733 -3.30972,0 -3.30972,-5.16316 z m 73.6081,-23.432793 q -0.66194,0.132389 -1.98583,0.397166 -1.32389,0.264777 -2.78016,0.132389 -1.45628,-0.132389 -2.51539,-0.794332 -1.1915,-0.661944 -1.1915,-2.250608 0,-0.92672 0.39717,-1.323886 0.39717,-0.397166 1.32389,-1.191498 2.91255,-2.382996 4.89838,-6.089879 2.11822,-3.839271 3.83927,-8.075708 1.72105,-4.368826 3.57449,-8.605264 1.98583,-4.368826 4.50122,-7.810931 2.51538,-3.442105 6.22227,-5.560324 3.70688,-2.118219 9.13481,-1.98583 2.25061,0 5.03077,1.059109 2.78016,1.05911 5.16316,2.912551 2.383,1.721053 3.97166,4.236437 1.58866,2.515385 1.58866,5.560324 0.66195,1.05911 -1.32388,3.04494 -1.85344,1.98583 -5.16316,4.368826 -3.30972,2.250607 -7.54615,4.765992 -4.10405,2.382996 -7.94332,4.501214 -3.83928,2.118219 -6.75183,3.706883 -2.91255,1.588664 -3.83927,2.382996 -0.66194,1.323886 -1.05911,3.044939 -0.39716,1.721053 -0.66194,3.309717 -0.13239,1.456275 -0.26478,2.780162 0,1.191498 0,1.853441 0,2.515385 -0.26477,5.560327 -0.13239,3.04494 0.26477,5.8251 0.52956,2.64777 2.25061,4.50121 1.72105,1.72106 5.8251,1.72106 4.36883,0 8.2081,-2.11822 3.83927,-2.25061 7.14899,-5.42794 3.30971,-3.17733 5.95749,-6.88421 2.78016,-3.706882 4.89838,-6.88421 2.2506,-3.309716 3.97166,-5.427935 1.72105,-2.118219 2.91255,-2.118219 1.32388,0 2.78016,0.529555 1.58866,0.397166 1.58866,2.118219 0,2.382996 -1.98583,5.692712 -1.85344,3.309717 -5.03077,7.016598 -3.04493,3.70688 -7.14898,7.41377 -3.97166,3.57449 -8.07571,6.48704 -4.10405,2.78016 -8.07571,4.63361 -3.97166,1.72105 -7.0166,1.72105 -5.95749,0 -9.00243,-2.91255 -3.04494,-2.91255 -4.36883,-7.28138 -1.19149,-4.36883 -1.32388,-9.26721 0,-5.030766 -0.13239,-9.267203 z m 24.35951,-35.74494 q -2.2506,0 -4.76599,2.250608 -2.51538,2.118218 -4.76599,5.295546 -2.11822,3.04494 -3.57449,6.354656 -1.32389,3.177328 -1.32389,5.295547 1.98583,0 5.69271,-1.456275 3.83927,-1.588664 7.54616,-3.839272 3.70688,-2.250607 6.48704,-4.765992 2.78016,-2.515384 2.78016,-4.765992 0,-1.191498 -0.92672,-1.98583 -0.92672,-0.794332 -2.25061,-1.323886 -1.19149,-0.529555 -2.51538,-0.794332 -1.32389,-0.264778 -2.383,-0.264778 z m 39.71661,63.943723 q -0.39717,-3.70688 -0.66195,-10.06154 -0.26477,-6.35465 -0.52955,-13.768417 -0.26478,-7.546154 -0.66194,-15.621862 -0.26478,-8.075709 -0.66195,-15.357086 -0.39716,-7.281376 -1.05911,-13.238866 -0.52955,-5.95749 -1.19149,-9.531984 0,-2.647774 1.19149,-3.04494 1.1915,-0.529554 3.04494,-0.529554 0.26478,0 1.1915,0 0.92672,0 1.32389,0.132388 1.1915,3.97166 1.45627,10.326316 0.39717,6.222268 0.52956,13.636033 0.26477,7.413765 0.39716,15.357085 0.26478,7.94332 0.92672,15.092308 1.85345,-10.458704 3.04494,-17.342915 1.32389,-6.884211 2.383,-10.988259 1.1915,-4.236438 2.11822,-6.222268 1.05911,-2.118218 2.25061,-2.780162 1.32388,-0.661943 2.78016,-0.529554 1.58866,0 3.70688,0 2.383,0 3.83927,1.853441 1.58867,1.853441 2.383,4.765992 0.92672,2.912551 1.32388,6.354656 0.52956,3.442105 0.92672,6.751822 0.39717,3.177328 0.79434,5.825101 0.52955,2.647773 1.58866,3.706883 3.30972,-9.796761 5.69271,-16.019029 2.383,-6.222267 4.10405,-9.796761 1.72105,-3.706883 3.04494,-5.295547 1.32389,-1.588664 2.383,-1.853441 1.05911,-0.397166 1.85344,-0.132389 0.92672,0.264778 1.85344,0.264778 3.57449,0 5.42794,3.706882 2.11821,5.95749 2.91255,11.385426 0.79433,5.295546 0.92672,10.326316 0.13239,4.89838 0,9.399595 0,4.501214 0.26477,8.737652 0.39717,4.23644 1.45628,8.34049 1.1915,4.10404 3.97166,8.0757 -1.05911,2.11822 -2.11822,2.91256 -1.05911,0.66194 -2.91255,0.66194 -1.58866,0 -2.78016,-1.05911 -1.1915,-1.1915 -1.98583,-2.78016 -0.79433,-1.72106 -1.32389,-3.44211 -0.39716,-1.72105 -0.79433,-3.04494 -0.52956,-18.931577 -1.72105,-28.993115 -1.05911,-10.193928 -3.30972,-10.723482 -2.25061,-0.529555 -5.8251,8.87004 -3.44211,9.267207 -8.60526,29.125507 -0.39717,0.66194 -1.1915,0.79433 -0.79433,0.13239 -1.72106,0.13239 -0.79433,0 -1.72105,0 -0.79433,-0.13239 -1.58866,0 -3.30972,-19.461134 -5.56033,-27.934008 -2.11821,-8.605263 -4.36882,-6.619433 -2.25061,1.98583 -5.03077,14.297975 -2.78016,12.179758 -7.14899,34.288666 z m 73.07853,-17.74008 q -0.92672,-6.089877 -0.92672,-11.78259 0,-5.825101 0.66194,-11.782591 0.79434,-5.95749 2.11822,-12.312146 1.45628,-6.487044 3.30972,-13.90081 0,-1.456275 0.79433,-2.647773 0.79433,-1.323887 2.11822,-2.118219 1.32389,-0.92672 2.78016,-1.456275 1.45628,-0.529555 2.78016,-0.529555 2.91255,0 5.29555,1.853442 2.383,1.853441 4.23644,4.501214 1.98583,2.647774 3.30971,5.692713 1.45628,2.912551 2.383,5.030769 1.05911,4.633604 1.45628,10.591094 0.52955,5.825101 0.13238,11.914979 -0.39716,6.089879 -1.85344,12.047369 -1.45627,5.825099 -4.10405,10.723479 -2.64777,4.89838 -6.88421,8.2081 -4.10404,3.30972 -9.79676,4.10405 -3.04494,0 -4.6336,-1.98583 -1.58866,-2.11822 -2.383,-5.03077 -0.66194,-3.04494 -0.79433,-6.08988 0,-3.04494 0,-5.03077 z m 6.75182,-0.39716 q 0,1.32388 0,2.51538 0.13239,1.1915 0.26478,2.383 0.26478,1.05911 0.52956,2.38299 0.39716,1.1915 0.92672,2.78016 h 0.79433 q 3.17733,0 5.42793,-2.11821 2.25061,-2.11822 3.83927,-5.42794 1.58867,-3.4421 2.64778,-7.546154 1.05911,-4.236437 1.58866,-8.208097 0.66195,-4.104049 0.79433,-7.546154 0.26478,-3.574494 0.26478,-5.692712 v -2.647774 q 0,-1.721052 -0.13239,-3.839271 -0.13239,-2.250607 -0.52955,-4.501215 -0.26478,-2.382996 -0.92672,-4.236437 -0.66195,-1.98583 -1.72106,-3.177328 -1.0591,-1.191498 -2.78016,-1.191498 -2.91255,-0.926721 -5.03077,0.397166 -1.98583,1.323887 -3.30971,4.501215 -1.1915,3.044939 -1.85344,7.546154 -0.66195,4.501214 -0.79434,9.92915 -0.13239,5.427935 -0.13239,11.517813 0.13239,6.089879 0.13239,12.179762 z m 35.08301,16.81336 q -1.45627,-17.87247 -2.64777,-35.744943 -1.05911,-18.004859 -2.38299,-37.333604 0,-3.177328 3.4421,-3.177328 h 1.05911 q 0.39717,0 0.92672,1.059109 0.52956,1.059109 1.05911,3.97166 0.66194,2.780162 1.32389,8.605263 0.79433,5.692713 1.85344,14.95992 1.05911,9.267206 2.38299,23.168016 2.78017,-9.002429 4.36883,-17.475304 1.58866,-8.472874 4.10405,-15.357085 2.51538,-7.016599 7.0166,-12.312146 4.6336,-5.295547 13.23886,-7.810931 4.766,0.794332 7.67855,5.825101 2.91255,4.898381 4.6336,12.179757 1.72105,7.281377 2.383,15.88664 0.66194,8.472875 0.79433,16.283806 0.13239,7.810929 0.13239,14.033199 0,6.08988 0.26477,8.73765 -0.39716,1.05911 -1.19149,1.85344 -0.79434,0.79434 -1.85344,1.1915 -0.92673,0.26478 -1.85345,0.13239 -0.92672,-0.26478 -1.72105,-1.45628 0,-1.45627 -0.26478,-5.95749 -0.26477,-4.50121 -0.66194,-10.4587 -0.39717,-6.089879 -0.92672,-12.841701 -0.39717,-6.88421 -0.79433,-12.8417 -0.26478,-6.089879 -0.52956,-10.591094 -0.26477,-4.501214 -0.39716,-5.95749 -2.78016,-4.89838 -5.56033,-5.560324 -2.64777,-0.661943 -5.42793,1.721053 -2.64778,2.382996 -5.16316,7.281377 -2.51538,4.89838 -4.76599,11.120648 -2.25061,6.089878 -4.23644,12.8417 -1.98583,6.751822 -3.4421,13.106478 -1.45628,6.222263 -2.51539,11.385423 -0.92672,5.03077 -1.1915,7.81093 -0.39716,0.92672 -1.72105,1.85345 -1.1915,0.79433 -2.64777,1.19149 -1.32389,0.39717 -2.78017,0.26478 -1.32388,-0.26478 -1.98583,-1.58866 z m 70.43076,-0.26478 q 0,0.13239 2.78017,-1.58866 2.91255,-1.72106 6.75182,-4.50122 3.97166,-2.91255 8.07571,-6.22227 4.10405,-3.4421 6.75182,-6.48704 2.64777,-3.044941 2.78016,-5.16316 0.26478,-2.250607 -3.57449,-2.91255 -4.76599,-0.661944 -8.07571,0.132388 -3.17733,0.794332 -5.8251,1.853442 -2.64778,1.059109 -5.03077,1.98583 -2.25061,0.92672 -5.03077,0.661943 -5.8251,0 -8.07571,-3.574494 -2.11822,-3.706883 -2.11822,-9.92915 0,-6.222267 2.78016,-11.782591 2.78017,-5.692713 7.14899,-9.796761 4.36883,-4.104049 10.06154,-6.487045 5.69271,-2.515385 11.6502,-2.515385 2.383,0 4.10405,0.397166 1.72105,0.397166 1.72105,3.04494 0,1.853441 -1.58866,3.574494 -1.58866,1.588664 -3.57449,1.588664 -0.13239,0 -0.66195,-0.132389 -0.52955,-0.264777 -1.05911,-0.661943 -0.52955,-0.397166 -1.05911,-0.529555 -0.52955,-0.264777 -0.66194,-0.264777 -4.23644,-1.191498 -8.2081,1.191498 -3.97166,2.382996 -7.14898,6.487044 -3.04494,3.97166 -4.89839,8.737652 -1.85344,4.633604 -1.85344,8.340486 0,1.456275 0.52956,2.382996 0.66194,0.794332 1.58866,1.191498 1.05911,0.397166 2.25061,0.529555 1.32389,0 2.64777,0 2.64778,0 5.29555,-0.794332 2.78016,-0.794332 5.29555,-1.853442 2.64777,-1.059109 5.29554,-1.853441 2.78016,-0.794332 5.69272,-0.794332 1.32388,0 2.91255,0.794332 1.58866,0.661943 2.91255,2.118219 1.32388,1.323886 2.2506,3.177328 0.92672,1.721052 1.05911,3.839271 0.79434,1.853441 -0.52955,4.898381 -1.1915,3.04494 -3.70688,6.48704 -2.51539,3.44211 -6.08988,7.0166 -3.5745,3.44211 -7.14899,6.35466 -3.57449,2.78016 -7.0166,4.50121 -3.44211,1.85345 -5.8251,1.72106 -2.64777,0 -3.17733,-1.58867 -0.39717,-1.58866 -0.39717,-3.57449 z"
     id="text2"
     style="font-size:135.566px;font-family:ShadowsIntoLight;letter-spacing:0px;word-spacing:-22px;fill:#333333"
     aria-label="Eli Lemons" /></svg>
